<?xml version="1.0" encoding="utf-8"?>
<!-- Generator: Adobe Illustrator 14.0.0, SVG Export Plug-In . SVG Version: 6.00 Build 43363)  -->
<!DOCTYPE svg PUBLIC "-//W3C//DTD SVG 1.1//EN" "http://www.w3.org/Graphics/SVG/1.1/DTD/svg11.dtd">
<svg version="1.1" id="Capa_1" xmlns="http://www.w3.org/2000/svg" xmlns:xlink="http://www.w3.org/1999/xlink" x="0px" y="0px"
	 width="800px" height="600px" viewBox="0 0 800 600" enable-background="new 0 0 800 600" xml:space="preserve">
<g id="XMLID_2_">
	<g>
		<path fill="#848284" d="M584.8,142.18c20.53,23.42,34.21,59.56,32.42,97.89c-1.859,39.98-17.87,68.831-36.63,93.68
			c-40.25,53.32-94.03,80.44-138.72,121.91c-3.05,2.55-5.86,5.35-8.41,8.41c-3.75,4.25-7.75,8.25-12.01,12.01
			c-2.851,2.35-5.45,4.95-7.811,7.8c0,0.2,0,0.4,0,0.601c-3.069,2.34-4.819,5.989-7.8,8.409c-3.229-0.569-3.24-4.37-6.01-5.399
			c0-0.61-0.48-0.721-0.6-1.2c-3.35-3.86-6.95-7.46-10.81-10.81c-2.55-3.061-5.35-5.86-8.41-8.41c-1.95-2.45-4.15-4.66-6.6-6.61
			c-0.2,0-0.4,0-0.6,0c-34.9-31.75-76.59-56.72-111.1-88.88c-2.15-2.65-4.55-5.05-7.21-7.2c-2.25-1.75-4.25-3.75-6-6.01
			c-1.95-2.45-4.16-4.65-6.61-6.601c-25.15-28.3-47.49-59.399-51.04-109.299c0-5,0-10.01,0-15.01c2.63-37.01,14.07-65.2,33.03-85.88
			c2.85-2.35,5.45-4.95,7.8-7.81c20.84-19.29,60.01-35.21,96.09-33.03c33.99,2.06,59.94,18.94,75.66,41.44
			c2.641-2.17,4.2-5.41,6.61-7.81c3.25-2.75,6.26-5.75,9.01-9c18.66-17.53,49.94-27.57,82.271-23.42
			C537,106.52,565.65,120.35,584.8,142.18z M545.16,342.76C576.06,312.61,608.06,264.08,592,201.63
			c-6.28-24.42-19.23-45.79-38.43-59.45c-18.811-13.38-46.28-23.21-78.07-20.42c-39.47,3.48-57.82,33.34-72.07,63.66
			c-12.22-30.59-32.86-60.64-72.06-63.66c-35.09-2.7-66.2,10.09-85.88,27.63c-2.25,1.75-4.25,3.75-6,6
			c-15.26,17.97-26.52,39.95-27.62,72.07c-1,3.81-1,11.8,0,15.61c1.03,29.04,12.53,50.33,25.82,69.661
			c36.98,53.789,95.63,85.26,141.72,126.71c2.96,3.46,6.16,6.659,9.61,9.609c3.82,5.65,11.49,11.851,13.81,18.021
			c0.34,0.899-1.19,4.79,1.21,3.6c1.75-6.45,7.85-13.76,12.61-19.21c0.199,0,0.399,0,0.6,0c0.14-0.86,0.99-1.02,1.2-1.81
			c3.85-3.351,7.46-6.95,10.81-10.811c33.721-31.729,75.641-55.27,108.09-88.27c0.61,0,0.721-0.49,1.2-0.61
			c2.26-1.75,4.26-3.75,6.01-6C544.56,343.36,545.05,343.25,545.16,342.76z"/>
		<path fill="#FFFFFF" d="M592,201.63c16.06,62.45-15.94,110.98-46.84,141.13c-2.851,2.351-5.45,4.95-7.811,7.811
			c-32.449,33-74.369,56.54-108.09,88.27c-0.2,0-0.399,0-0.6,0c-4.26,3.96-8.72,7.7-12.01,12.62
			c-4.761,5.45-10.86,12.76-12.61,19.21c-2.4,1.19-0.87-2.7-1.21-3.6c-2.32-6.17-9.99-12.37-13.81-18.021
			c-2.95-3.45-6.15-6.649-9.61-9.609c-46.09-41.45-104.74-72.921-141.72-126.71C224.4,293.4,212.9,272.11,211.87,243.07
			c0-5.2,0-10.41,0-15.61c1.1-32.12,12.36-54.1,27.62-72.07c2.25-1.75,4.25-3.75,6-6c19.68-17.54,50.79-30.33,85.88-27.63
			c39.2,3.02,59.84,33.07,72.06,63.66c14.25-30.32,32.601-60.18,72.07-63.66c31.79-2.79,59.26,7.04,78.07,20.42
			C572.77,155.84,585.72,177.21,592,201.63z M542.16,265.89c3.93-1.21,7.24-8.3,4.2-12.61c-1.75-2.25-3.75-4.26-6-6.01
			c-7.311-9.57-24.25-5.06-31.23,1.81c7.29-3.01,17.43-1.97,21.62,3c-2.24,4.17-5.66,7.16-8.41,10.81c-2.25,1.75-4.26,3.75-6.01,6
			c-24.88,24.96-62.98,36.709-111.69,37.84c-2.81,0-5.61,0-8.41,0c-47.45-1.391-85.54-12.15-109.9-36.641
			c-2.35-2.85-4.95-5.45-7.81-7.8c-3.02-3.39-6.31-6.5-8.4-10.81c4.78-4.39,15.46-4.78,21.62-3c-5.25-2.34-10.59-7.28-18.02-7.21
			c-13.35,0.12-28.13,17.56-15.01,24.62c1.51-2.29,2.02-5.58,4.2-7.21c21.68,40.17,67.46,56.25,126.71,58.86
			c1.83,0.99,7.79,0.99,9.61,0c1,0,2,0,3,0c1.63,0.99,7.39,0.99,9.01,0c59.649-2.41,105.05-19.06,127.31-58.86
			C539.81,261.03,541.46,262.99,542.16,265.89z M480.9,231.06c17.149,1.23,20.899-28.86-0.601-26.42
			C463.94,206.49,467.88,230.13,480.9,231.06z M323.56,230.46c13.41-4.1,10.25-28.17-7.2-25.82c-6.91,0.92-11.48,5.92-10.81,14.41
			C306.31,228.75,315.96,232.78,323.56,230.46z"/>
		<path fill="#848284" d="M546.36,253.28c3.04,4.31-0.271,11.4-4.2,12.61c-0.7-2.9-2.351-4.86-3.61-7.21
			c-22.26,39.8-67.66,56.45-127.31,58.86c-3,0-6,0-9.01,0c-1,0-2,0-3,0c-3.2,0-6.4,0-9.61,0c-59.25-2.61-105.03-18.69-126.71-58.86
			c-2.18,1.63-2.69,4.92-4.2,7.21c-13.12-7.06,1.66-24.5,15.01-24.62c7.43-0.07,12.77,4.87,18.02,7.21
			c-6.16-1.78-16.84-1.39-21.62,3c2.09,4.31,5.38,7.42,8.4,10.81c0,0.2,0,0.4,0,0.6c1.95,2.45,4.16,4.65,6.61,6.6
			c0.49,0.12,0.6,0.61,1.2,0.6c24.36,24.49,62.45,35.25,109.9,36.641c1.43,0.989,6.98,0.989,8.41,0
			c48.71-1.131,86.811-12.88,111.69-37.84c2.26-1.75,4.26-3.75,6.01-6c2.75-3.65,6.17-6.64,8.41-10.81
			c-4.19-4.97-14.33-6.01-21.62-3c6.98-6.87,23.92-11.38,31.23-1.81C542.11,249.53,544.11,251.53,546.36,253.28z"/>
		<path fill="#E8E8E8" d="M545.16,342.76c-0.11,0.49-0.601,0.601-0.601,1.2c-2.25,1.75-4.26,3.75-6.01,6
			c-0.479,0.12-0.59,0.61-1.2,0.61C539.71,347.71,542.31,345.11,545.16,342.76z"/>
		<path fill="#989798" d="M540.36,247.27c2.25,1.75,4.25,3.76,6,6.01C544.11,251.53,542.11,249.53,540.36,247.27z"/>
		<path fill="#989798" d="M544.56,343.96c-1.75,2.25-3.75,4.25-6.01,6C540.3,347.71,542.31,345.71,544.56,343.96z"/>
		<path fill="#B3B1B3" d="M522.34,262.89c-1.75,2.25-3.75,4.25-6.01,6C518.08,266.64,520.09,264.64,522.34,262.89z"/>
		<path fill="#848284" d="M480.3,204.64c21.5-2.44,17.75,27.65,0.601,26.42C467.88,230.13,463.94,206.49,480.3,204.64z"/>
		<path fill="#CDCCCD" d="M441.87,455.66c-2.55,3.05-5.36,5.85-8.41,8.41C436.01,461.01,438.82,458.21,441.87,455.66z"/>
		<path fill="#989798" d="M428.66,438.84c0.2,0,0.399,0,0.6,0c-3.35,3.86-6.96,7.46-10.81,10.811
			C421.5,445.7,425.61,442.8,428.66,438.84z"/>
		<path fill="#E8E8E8" d="M428.66,438.84c-3.05,3.96-7.16,6.86-10.21,10.811c-0.21,0.79-1.061,0.949-1.2,1.81c-0.2,0-0.4,0-0.6,0
			C419.94,446.54,424.4,442.8,428.66,438.84z"/>
		<path fill="#989798" d="M421.45,476.08c0,0.2,0,0.4,0,0.6c-2.96,2.04-4.851,5.16-7.811,7.2C416,481.03,418.6,478.43,421.45,476.08
			z"/>
		<path fill="#E8E8E8" d="M413.64,483.88c2.96-2.04,4.851-5.16,7.811-7.2c-2.351,2.851-4.95,5.45-7.811,7.801
			C413.64,484.28,413.64,484.08,413.64,483.88z"/>
		<path fill="#B3B1B3" d="M419.05,125.37c-2.75,3.25-5.76,6.25-9.01,9C412.79,131.12,415.79,128.12,419.05,125.37z"/>
		<path fill="#E8E8E8" d="M402.23,317.54c3.01,0,6.01,0,9.01,0C409.62,318.53,403.86,318.53,402.23,317.54z"/>
		<path fill="#989798" d="M396.23,306.73c2.8,0,5.6,0,8.41,0C403.21,307.72,397.66,307.72,396.23,306.73z"/>
		<path fill="#E8E8E8" d="M399.23,486.29c0.12,0.479,0.6,0.59,0.6,1.2c-4.05-3.561-7.86-7.36-11.41-11.41
			C392.38,479.13,395.27,483.24,399.23,486.29z"/>
		<path fill="#E8E8E8" d="M389.62,317.54c3.21,0,6.41,0,9.61,0C397.41,318.53,391.45,318.53,389.62,317.54z"/>
		<path fill="#989798" d="M399.23,486.29c-3.96-3.05-6.85-7.16-10.81-10.21c0-0.2,0-0.4,0-0.6
			C392.28,478.83,395.88,482.43,399.23,486.29z"/>
		<path fill="#B3B1B3" d="M380.01,467.07c3.06,2.55,5.86,5.35,8.41,8.41C385.37,472.92,382.57,470.12,380.01,467.07z"/>
		<path fill="#CDCCCD" d="M379.41,439.44c3.46,2.96,6.66,6.159,9.61,9.609C385.57,446.1,382.37,442.9,379.41,439.44z"/>
		<path fill="#989798" d="M380.01,467.07c-0.2,0-0.4,0-0.6,0c-1.64-2.561-4.36-4.051-6-6.61
			C375.86,462.41,378.06,464.62,380.01,467.07z"/>
		<path fill="#E8E8E8" d="M373.41,460.46c1.64,2.56,4.36,4.05,6,6.61c-2.45-1.95-4.65-4.15-6.6-6.61
			C373.01,460.46,373.21,460.46,373.41,460.46z"/>
		<path fill="#848284" d="M316.36,204.64c17.45-2.35,20.61,21.72,7.2,25.82c-7.6,2.32-17.25-1.71-18.01-11.41
			C304.88,210.56,309.45,205.56,316.36,204.64z"/>
		<path fill="#E8E8E8" d="M286.33,270.09c-0.6,0.01-0.71-0.48-1.2-0.6c-1.95-2.45-4.15-4.65-6.61-6.6c0-0.2,0-0.4,0-0.6
			C281.38,264.64,283.98,267.24,286.33,270.09z"/>
		<path fill="#989798" d="M278.52,262.89c2.46,1.95,4.66,4.15,6.61,6.6C282.68,267.54,280.47,265.34,278.52,262.89z"/>
		<path fill="#B3B1B3" d="M254.5,364.38c2.66,2.15,5.06,4.55,7.21,7.2C259.06,369.43,256.65,367.03,254.5,364.38z"/>
		<path fill="#B3B1B3" d="M241.89,351.77c2.45,1.95,4.66,4.15,6.61,6.601C246.04,356.42,243.84,354.22,241.89,351.77z"/>
		<path fill="#B3B1B3" d="M245.49,149.39c-1.75,2.25-3.75,4.25-6,6C241.24,153.14,243.24,151.14,245.49,149.39z"/>
		<path fill="#B3B1B3" d="M231.68,133.77c-2.35,2.86-4.95,5.46-7.8,7.81C226.23,138.73,228.83,136.12,231.68,133.77z"/>
		<path fill="#CDCCCD" d="M211.87,227.46c0,5.2,0,10.41,0,15.61C210.87,239.26,210.87,231.27,211.87,227.46z"/>
		<path fill="#B3B1B3" d="M190.85,227.46c0,5,0,10.01,0,15.01C189.85,238.86,189.85,231.07,190.85,227.46z"/>
	</g>
	<g>
	</g>
</g>
</svg>
